<svg width="768" height="266" viewBox="0 0 768 266" fill="none" xmlns="http://www.w3.org/2000/svg">
<g clip-path="url(#clip0_1_24)">
<path d="M91.8 141.16L92.45 142.44C67.11 164.43 74.44 202.03 59.46 229.51C55.11 237.49 48.91 243.92 41.44 248.23C39.46 247.05 37.57 245.79 35.76 244.47C35.48 244.27 35.22 244.07 34.95 243.87C64.2 229.9 62.24 186.91 75.45 160.76C79.28 153.21 84.52 145.75 91.8 141.16Z" fill="black"/>
<path d="M124.39 89.83C127.02 82.45 138.32 85.94 136.26 93.58C134.07 101.72 121.61 97.63 124.39 89.83Z" fill="black"/>
<path d="M265.27 132.64C265.27 235.62 235.61 265.29 132.63 265.29C128.17 265.29 123.85 265.23 119.66 265.11C124.28 261.41 128.74 256.97 132.94 251.64C146.58 235.68 155.38 214.95 156.75 193.97C157.72 179.2 154.69 163.67 150.22 149.59C145.68 135.25 140.05 127.73 145.29 112.22C151.15 94.88 163.21 86.55 179.63 79.83C198.44 72.12 214.52 69.1 234.38 65.32C231.87 62.86 228.6 61.78 224.56 62.02C202.08 63.31 182.23 70.03 160.46 74.97C141.26 79.33 135.09 64.36 117.68 64.67C97.67 65.04 83.7 80.75 85.14 100.41C85.64 107.39 89.53 115.56 84.11 121.29C78.44 127.29 65.18 128.65 57.19 132.11C32.64 142.75 12.77 165.6 5 191.46C4.93 191.17 4.87 190.88 4.81 190.59C4.33 188.31 3.89 185.97 3.49 183.57C1.07 169.03 0 152.15 0 132.64C0 126.11 0.12 119.87 0.37 113.92C4.05 26.02 36.19 0 132.63 0C235.61 0 265.27 29.66 265.27 132.64Z" fill="black"/>
<path d="M318.18 198.25V239.19H324.9V198.25H318.18Z" fill="black"/>
<path d="M377.2 198.25V226.58H376.97L358.22 198.25H351.26V239.19H357.69V209.97H357.92L377.2 239.19H383.63V198.25H377.2Z" fill="black"/>
<path d="M437.99 224.4C437.89 223.55 437.77 222.77 437.63 222.05C437.49 221.34 437.28 220.71 437.01 220.15C436.57 219.04 435.97 218.19 435.19 217.59C434.42 217 433.54 216.57 432.54 216.31C431.55 216.05 430.44 215.87 429.21 215.75L419.45 214.62C418.1 214.46 417.1 214.24 416.45 213.96C415.79 213.68 415.38 213.18 415.2 212.44C415.02 211.71 414.93 210.67 414.93 209.32C414.93 208.17 415.01 207.21 415.17 206.43C415.33 205.66 415.8 205.06 416.6 204.62C417.27 204.22 418.23 203.93 419.48 203.76C420.73 203.58 422.39 203.49 424.45 203.49C425.68 203.49 427.01 203.52 428.44 203.58C429.87 203.64 431.24 203.73 432.57 203.85C433.9 203.96 435.06 204.1 436.06 204.26V198.85C435.1 198.61 433.9 198.42 432.46 198.28C431.01 198.14 429.47 198.02 427.84 197.92C426.22 197.83 424.63 197.78 423.08 197.78C420.86 197.78 418.84 197.91 417.01 198.16C415.19 198.42 413.61 198.96 412.28 199.77C410.95 200.58 409.93 201.76 409.22 203.31C408.5 204.86 408.15 206.96 408.15 209.62C408.15 211.2 408.27 212.65 408.5 213.96C408.74 215.27 409.19 216.4 409.84 217.35C410.5 218.3 411.43 219.07 412.64 219.64C413.85 220.22 415.41 220.63 417.31 220.86L427.07 222C428.02 222.11 428.8 222.26 429.39 222.44C429.99 222.62 430.42 222.91 430.7 223.3C430.98 223.7 431.16 224.26 431.24 224.97C431.31 225.68 431.35 226.58 431.35 227.65C431.35 228.44 431.32 229.16 431.26 229.82C431.21 230.47 431.07 231.04 430.85 231.52C430.63 231.99 430.28 232.39 429.81 232.71C429.09 233.14 428.14 233.46 426.95 233.66C425.76 233.86 424.11 233.96 422.01 233.96C420.98 233.96 419.75 233.93 418.32 233.87C416.89 233.81 415.4 233.72 413.83 233.6C412.26 233.48 410.77 233.36 409.34 233.24V238.78C410.73 238.93 412.26 239.08 413.95 239.22C415.63 239.36 417.36 239.47 419.13 239.55C420.89 239.63 422.51 239.67 423.98 239.67C425.64 239.67 427.19 239.6 428.62 239.46C430.05 239.32 431.35 239.02 432.54 238.57C433.73 238.11 434.74 237.44 435.55 236.54C436.36 235.65 437 234.45 437.45 232.94C437.91 231.44 438.14 229.55 438.14 227.29C438.14 226.22 438.09 225.26 437.99 224.4Z" fill="black"/>
<path d="M487.29 198.25V223.18C487.29 225.49 487.22 227.35 487.08 228.78C486.94 230.21 486.58 231.3 486.01 232.05C485.43 232.81 484.53 233.31 483.3 233.57C482.07 233.83 480.35 233.96 478.13 233.96C475.91 233.96 474.22 233.83 472.95 233.57C471.68 233.31 470.77 232.81 470.21 232.05C469.65 231.3 469.3 230.21 469.14 228.78C468.98 227.35 468.9 225.49 468.9 223.18V198.25H462.18V221.1C462.18 224.12 462.29 226.7 462.5 228.84C462.72 230.98 463.14 232.76 463.75 234.16C464.37 235.57 465.26 236.67 466.43 237.47C467.6 238.26 469.14 238.83 471.04 239.16C472.95 239.5 475.31 239.67 478.13 239.67C480.95 239.67 483.3 239.5 485.21 239.16C487.11 238.83 488.65 238.26 489.82 237.47C490.99 236.67 491.87 235.57 492.47 234.16C493.06 232.76 493.47 230.98 493.69 228.84C493.9 226.7 494.01 224.12 494.01 221.1V198.25H487.29Z" fill="black"/>
<path d="M544.89 222.65C546.71 222.05 548.05 221.09 548.91 219.76C549.76 218.43 550.31 216.97 550.57 215.36C550.83 213.75 550.96 212.28 550.96 210.93C550.96 209.06 550.82 207.35 550.54 205.78C550.26 204.21 549.73 202.86 548.94 201.73C548.14 200.6 546.95 199.74 545.37 199.14C543.78 198.55 541.7 198.25 539.12 198.25H520.02V239.19H526.74V223.6H537.33C537.72 223.6 538.06 223.59 538.36 223.58L544.46 239.19H551.6L544.88 222.65H544.89ZM544.03 214.14C543.89 215.01 543.56 215.73 543.05 216.28C542.53 216.84 541.74 217.24 540.67 217.5C539.59 217.76 538.13 217.89 536.26 217.89H526.74V203.96H536.5C538.32 203.96 539.76 204.08 540.81 204.32C541.86 204.56 542.63 204.95 543.1 205.48C543.58 206.02 543.89 206.73 544.03 207.62C544.17 208.52 544.24 209.62 544.24 210.93C544.24 212.24 544.17 213.27 544.03 214.14Z" fill="black"/>
<path d="M595.17 198.25H586.36L571.73 239.19H578.51L582.02 229.08H599.28L602.85 239.19H609.81L595.17 198.25ZM583.92 223.36L590.47 204.74H590.77L597.31 223.36H583.92Z" fill="black"/>
<path d="M658.01 198.25V226.58H657.77L639.03 198.25H632.06V239.19H638.49V209.97H638.73L658.01 239.19H664.43V198.25H658.01Z" fill="black"/>
<path d="M712.31 233.78C710.74 233.9 709.3 233.96 707.99 233.96C705.81 233.96 704.01 233.88 702.58 233.72C701.15 233.56 700.01 233.2 699.16 232.65C698.3 232.09 697.67 231.27 697.25 230.18C696.84 229.09 696.56 227.6 696.42 225.71C696.28 223.83 696.21 221.5 696.21 218.72C696.21 215.94 696.28 213.57 696.42 211.7C696.56 209.84 696.84 208.36 697.25 207.27C697.67 206.18 698.3 205.35 699.16 204.8C700.01 204.24 701.15 203.89 702.58 203.73C704.01 203.57 705.81 203.49 707.99 203.49C708.67 203.49 709.46 203.51 710.37 203.55C711.28 203.59 712.23 203.66 713.2 203.76C714.17 203.86 715.15 203.96 716.14 204.08V198.73C715.35 198.53 714.4 198.36 713.29 198.22C712.18 198.08 711.02 197.97 709.81 197.89C708.6 197.82 707.42 197.78 706.27 197.78C703.33 197.78 700.87 197.96 698.89 198.34C696.9 198.72 695.29 199.36 694.04 200.28C692.79 201.19 691.84 202.43 691.18 203.99C690.53 205.56 690.08 207.56 689.84 209.97C689.61 212.39 689.49 215.31 689.49 218.72C689.49 222.13 689.61 225.05 689.84 227.47C690.08 229.89 690.53 231.88 691.18 233.45C691.84 235.02 692.79 236.26 694.04 237.17C695.29 238.08 696.9 238.73 698.89 239.1C700.87 239.48 703.33 239.67 706.27 239.67C707.38 239.67 708.54 239.63 709.75 239.55C710.96 239.47 712.15 239.37 713.32 239.25C714.49 239.13 715.51 238.99 716.38 238.83V233.36C715.23 233.52 713.87 233.66 712.31 233.78Z" fill="black"/>
<path d="M767.68 203.96V198.25H740.42V239.19H767.68V233.48H747.15V221.4H764.88V215.69H747.15V203.96H767.68Z" fill="black"/>
<path d="M394.42 89.53L443.54 26.48H405.44L365.6 79.09H353.23V26.48H318.41V159.54H353.23V104.61H365.6L404.67 159.54H444.31L394.42 89.53Z" fill="black"/>
<path d="M461.33 26.48V159.54H496.14V26.48H461.33Z" fill="black"/>
<path d="M678.32 26.48L658.2 119.89H656.66L631.9 26.48H596.7L572.53 119.89H570.98L549.13 26.48H514.51L547.39 159.54H590.13L612.95 76.77H614.5L637.32 159.54H680.25L713.13 26.48H678.32Z" fill="black"/>
<path d="M731.3 26.48V159.54H766.12V26.48H731.3Z" fill="black"/>
</g>
<defs>
<clipPath id="clip0_1_24">
<rect width="767.68" height="265.29" fill="white"/>
</clipPath>
</defs>
</svg>
